<svg width="64" height="64" viewBox="0 0 64 64" fill="none" xmlns="http://www.w3.org/2000/svg">
<path d="M39.5 55.5H24.5C24.225 55.5 24 55.725 24 56V58C24 59.1063 24.8938 60 26 60H38C39.1063 60 40 59.1063 40 58V56C40 55.725 39.775 55.5 39.5 55.5ZM32 4C20.6812 4 11.5 13.1812 11.5 24.5C11.5 32.0875 15.625 38.7125 21.75 42.2562V49.5C21.75 50.6063 22.6438 51.5 23.75 51.5H40.25C41.3563 51.5 42.25 50.6063 42.25 49.5V42.2562C48.375 38.7125 52.5 32.0875 52.5 24.5C52.5 13.1812 43.3188 4 32 4ZM39.9938 38.3625L37.75 39.6625V47H26.25V39.6625L24.0063 38.3625C19.0875 35.5187 16 30.2812 16 24.5C16 15.6625 23.1625 8.5 32 8.5C40.8375 8.5 48 15.6625 48 24.5C48 30.2812 44.9125 35.5187 39.9938 38.3625Z" fill="#1A1A1A"/>
</svg>
